<svg width="248" height="248" viewBox="0 0 248 248" fill="none" xmlns="http://www.w3.org/2000/svg">
<rect x="10" y="10" width="228" height="228" rx="114" fill="white"/>
<path d="M160.359 106.984L157.312 114.016L140.555 115.246C139.891 117.238 139.285 119.348 138.738 121.574C138.191 123.762 137.723 126.027 137.332 128.371C136.941 130.676 136.629 133 136.395 135.344C136.199 137.648 136.102 139.875 136.102 142.023C136.102 144.367 136.238 146.574 136.512 148.645C136.824 150.676 137.273 152.453 137.859 153.977C138.484 155.5 139.285 156.711 140.262 157.609C141.277 158.469 142.488 158.898 143.895 158.898C145.887 158.898 147.547 158.508 148.875 157.727C150.242 156.906 151.336 155.871 152.156 154.621C152.977 153.332 153.562 151.906 153.914 150.344C154.266 148.742 154.441 147.16 154.441 145.598C154.441 144.152 154.324 142.746 154.09 141.379C155.77 142.238 157.039 143.625 157.898 145.539C158.797 147.414 159.246 149.465 159.246 151.691C159.246 153.996 158.855 156.027 158.074 157.785C157.332 159.543 156.297 161.027 154.969 162.238C153.641 163.41 152.078 164.309 150.281 164.934C148.484 165.559 146.551 165.871 144.48 165.871C143.23 165.871 141.863 165.734 140.379 165.461C138.934 165.188 137.469 164.68 135.984 163.938C134.539 163.234 133.113 162.219 131.707 160.891C130.34 159.562 129.129 157.844 128.074 155.734C127.02 153.625 126.16 151.066 125.496 148.059C124.871 145.012 124.559 141.438 124.559 137.336C124.559 135.5 124.656 133.664 124.852 131.828C125.047 129.953 125.301 128.117 125.613 126.32C125.965 124.484 126.355 122.727 126.785 121.047C127.254 119.328 127.723 117.707 128.191 116.184L116.648 117.062L113.191 151.574L125.789 159.426L96.1406 163.586L106.805 155.207L103.699 118L86.1797 119.172L92.5078 105.051L160.359 106.984Z" fill="#641079"/>
<rect x="10" y="10" width="228" height="228" rx="114" stroke="#101010" stroke-width="20"/>
</svg>
